<?xml version="1.0" encoding="iso-8859-1"?>
<!-- Generator: Adobe Illustrator 19.0.0, SVG Export Plug-In . SVG Version: 6.00 Build 0)  -->
<svg xmlns="http://www.w3.org/2000/svg" xmlns:xlink="http://www.w3.org/1999/xlink" version="1.1" id="Layer_1" x="0px" y="0px" viewBox="0 0 512.014 512.014" style="enable-background:new 0 0 512.014 512.014;" xml:space="preserve" width="512px" height="512px">
<g>
	<g>
		<path d="M491.365,462.404c-1.154-0.824-2.495-1.347-3.902-1.523c-53.957-6.745-53.189-55.603-52.471-65.518    c6.515-14.617,11.201-29.981,13.953-45.746c28.131-2.875,48.605-28.011,45.729-56.142c-2.67-26.125-24.674-45.995-50.936-45.995    c0.439-4.26,1.158-8.485,2.154-12.65c6.117-29.884,20.442-99.867-30.921-173.242C376.843,7.173,310.641-1.815,261.687,0.271    c-9.168-0.671-18.385,0.14-27.294,2.404c-0.101,0.021-0.203,0.032-0.304,0.056c-8.582,2.161-16.872,5.348-24.692,9.492    c-16.046-3.593-32.436-5.426-48.879-5.467c-33.787,0-108.333,24.95-127.563,82.634c-19.004,57.017,1.692,102.55,28.938,120.717    c4.4,2.863,8.99,5.424,13.737,7.665c-2.929,10.063-5.485,20-7.649,29.724c-28.265,0.148-51.058,23.181-50.909,51.446    c0.136,25.885,19.578,47.594,45.292,50.571c1.467,8.508,3.497,16.909,6.079,25.148c-0.127,0.827-0.129,1.669-0.004,2.496    c0.079,0.4,7.829,40.467-9.954,65.142c-8.059,10.849-20.455,17.637-33.937,18.583c-4.676,0.583-7.994,4.847-7.411,9.523    c0.176,1.407,0.699,2.748,1.523,3.902c1.404,1.967,26.696,36.158,82.854,36.158c24.98-0.538,49.605-6.036,72.442-16.175    c0.055-0.023,0.088-0.072,0.143-0.096c52.155,23.93,112.186,23.753,164.199-0.484l-0.242,0.58    c22.837,10.138,47.461,15.636,72.442,16.175c56.15-0.008,81.45-34.192,82.854-36.158    C496.089,470.471,495.2,465.142,491.365,462.404z M477.728,301.817c-1.358,14.725-12.041,26.901-26.464,30.163l0,0    c0.045-0.553,0.027-1.097,0.068-1.65c0.356-4.821,0.599-9.673,0.599-14.583c0-5.007-0.256-10.316-0.628-15.755    c-0.089-1.3-0.191-2.605-0.301-3.929c-0.446-5.375-1.016-10.886-1.81-16.64l-0.056-0.463c-0.647-4.644-1.403-9.402-2.267-14.272    C465.643,266.42,479.459,283.043,477.728,301.817z M64.166,266.403c-0.151,0.862-0.262,1.692-0.406,2.55    c-0.591,3.545-1.166,7.074-1.635,10.49c-0.215,1.559-0.36,3.052-0.55,4.589c-0.337,2.734-0.698,5.493-0.954,8.137    c-0.189,1.936-0.287,3.777-0.432,5.668c-0.165,2.153-0.373,4.357-0.481,6.444c-0.205,3.94-0.31,7.769-0.31,11.467    c0,4.861,0.239,9.665,0.588,14.439c0.039,0.546,0.022,1.081,0.066,1.628c-18.298-4.542-29.449-23.057-24.907-41.355    c3.436-13.84,15.113-24.087,29.282-25.695C64.327,265.323,64.262,265.847,64.166,266.403z M71.385,195.923    c-22.046-14.7-38.413-52.617-22.238-101.133c15.75-47.25,79.892-70.967,111.371-70.967c16.191,0.042,32.322,1.967,48.069,5.736    c20.826,4.982,40.455,14.055,57.744,26.689c21.407,16.104,45.576,28.163,71.317,35.583c4.573,1.136,9.201-1.649,10.337-6.222    c1.133-4.559-1.633-9.176-6.187-10.328c-23.509-6.947-45.597-18.016-65.233-32.692c-12.687-9.33-26.609-16.85-41.367-22.345    c0.807-0.23,1.627-0.597,2.43-0.799c3.627-0.461,7.265-0.842,10.897-1.171c0.402-0.036,0.803-0.093,1.205-0.128    c4.145-0.359,8.279-0.631,12.372-0.814l0.001,0c44.724-1.974,105.114,5.845,138.891,54.05    c28.604,39.826,40.195,89.394,32.217,137.775c-1.375-4.458-2.824-8.928-4.346-13.408c-7.503-22.059-16.467-43.593-26.83-64.461    c2.454-3.493,4.363-7.339,5.664-11.405c1.191-4.493-1.463-9.106-5.946-10.333c-4.506-1.247-9.181,1.344-10.512,5.825    c-1.336,3.532-3.284,6.802-5.754,9.658c-7.558,9.333-23.358,21.575-55.704,26.908c-47.737,7.95-96.696-16.05-97.104-16.242    c-0.446-0.233-0.892-0.45-1.4-0.667c-1.263-0.658-2.671-1.425-4.217-2.258c-21.538-11.683-71.992-38.983-107.337,5.183    c-17.795,21.763-20.03,52.348-5.588,76.467c-8.484-2.541-16.813-5.576-24.942-9.092C82.977,202.756,77.015,199.607,71.385,195.923    z M180.638,132.226c-30.747,8.819-52.556,36.115-54.373,68.05c-8.081-17.055-5.427-37.262,6.782-51.653    C143.991,133.838,162.91,127.32,180.638,132.226z M42.476,474.231c12.023-3.974,22.476-11.659,29.854-21.95    c7.65-11.244,12.411-24.201,13.86-37.723c16.549,28.286,39.87,52.014,67.865,69.052C93.574,504.567,58.253,486.838,42.476,474.231    z M235.621,493.821c-83.049-9.352-148.593-74.894-157.948-157.943l-0.001,0c-0.14-1.28-0.268-2.558-0.382-3.834    c-0.487-5.375-0.825-10.795-0.825-16.296c0-3.736,0.149-7.662,0.374-11.681c0.068-1.223,0.172-2.485,0.261-3.732    c0.211-2.958,0.48-5.985,0.807-9.082c0.146-1.376,0.288-2.748,0.456-4.147c0.42-3.494,0.922-7.083,1.483-10.74    c0.152-0.984,0.267-1.934,0.429-2.926c0.663-4.09,1.453-8.322,2.287-12.599c2.314-11.681,5.249-23.818,8.786-36.177l0.033,0.012    c2.413,0.929,4.798,1.79,7.153,2.611c0.35,0.122,0.698,0.247,1.047,0.367c2.23,0.768,4.407,1.486,6.53,2.154l1.183,0.371    c2.091,0.652,4.116,1.261,6.046,1.818c0.299,0.086,0.574,0.162,0.869,0.246c4.036,1.151,7.631,2.09,10.592,2.818l0.553,0.137    c1.415,0.345,2.641,0.634,3.712,0.879l0.441,0.101c1.035,0.235,1.877,0.42,2.497,0.552l0.145,0.031    c0.576,0.122,0.993,0.207,1.102,0.229c0.319,0.033,0.639,0.046,0.959,0.041c0.241,0.021,0.459,0.126,0.704,0.126    c0.252,0,0.512-0.041,0.769-0.064c0.166-0.014,0.328-0.016,0.492-0.041l0.151-0.012c0.129-0.021,0.224-0.107,0.351-0.134    c0.859-0.18,1.684-0.495,2.444-0.932c0.277-0.166,0.543-0.349,0.798-0.546c0.832-0.637,1.556-1.405,2.143-2.273    c0.115-0.181,0.282-0.314,0.385-0.506c0.194-0.438,0.349-0.891,0.465-1.356c0.126-0.305,0.233-0.617,0.32-0.935    c0.222-1.009,0.257-2.05,0.105-3.072l0.002-0.062c-0.075-0.467-7.337-46.342,22.304-68.575c16.723-12.852,38.99-15.92,58.566-8.07    c0.287,0.137,0.59,0.278,0.764,0.345c2.192,1.092,54.3,26.742,107.604,17.85c20.896-2.556,40.687-10.81,57.208-23.858    c8.749,18.305,16.404,37.113,22.925,56.325c2.307,6.803,4.448,13.591,6.423,20.364c1.954,6.703,3.729,13.339,5.306,19.861    l0.012,0.042c1.627,6.589,3.044,13.049,4.3,19.382c0.248,1.265,0.447,2.489,0.68,3.742c0.851,4.523,1.6,8.958,2.247,13.305    c0.333,2.242,0.635,4.45,0.916,6.637c0.458,3.552,0.829,7.011,1.143,10.412c0.184,1.986,0.395,4.003,0.53,5.927    c0.356,5.135,0.599,10.142,0.599,14.837c0,5.509-0.338,10.939-0.827,16.322c-0.114,1.268-0.24,2.536-0.38,3.802    C422.588,434.175,333.923,504.891,235.621,493.821z M357.522,483.456c25.224-15.406,46.674-36.269,62.773-61.055    c5.433,25.013,24.194,45.004,48.811,52.014C453.002,486.931,417.437,504.284,357.522,483.456z" fill="#705d78"/>
	</g>
</g>
<g>
	<g>
		<path d="M381.505,278.873c-12.963-11.911-31.121-16.355-48.119-11.777l-0.018,0.002l-0.016,0.006l-0.051,0.011l-0.042,0.021    c-12.013,3.587-22.92,10.163-31.7,19.113l-0.06,0.081l-0.078,0.052c-3.521,3.525-6.562,6.842-9.304,10.125    c-3.281,3.059-3.461,8.198-0.402,11.48c2.13,2.284,5.38,3.145,8.361,2.215c3.319,15.338,12.564,25.906,24.196,25.906    c14.596,0,25.6-16.508,25.6-38.4c0.015-5.138-0.664-10.255-2.017-15.212c7.943,0.291,15.552,3.269,21.584,8.445    c3.345,3.319,8.747,3.298,12.067-0.047C384.806,287.565,384.806,282.199,381.505,278.873z M324.272,319.039    c-2.475,0-8.533-7.475-8.533-21.333c0-0.45,0.004-0.9,0.017-1.342c4.576-4.202,9.751-7.701,15.354-10.383    c1.145,3.802,1.716,7.754,1.695,11.725C332.806,311.564,326.747,319.039,324.272,319.039z" fill="#705d78"/>
	</g>
</g>
<g>
	<g>
		<path d="M372.847,231.689c-1.383-1.333-34.554-31.95-88.704,21.542c-3.355,3.31-3.392,8.713-0.082,12.068    c1.604,1.626,3.794,2.542,6.078,2.541c2.245,0.004,4.4-0.88,5.996-2.458c41.579-41.075,63.879-22.275,64.979-21.3    c3.442,3.219,8.842,3.038,12.06-0.404C376.365,240.265,376.219,234.922,372.847,231.689z" fill="#705d78"/>
	</g>
</g>
<g>
	<g>
		<path d="M235.793,290.598c-36.117-29.408-80.538-15.167-98.983-3.525c-3.986,2.515-5.178,7.785-2.663,11.771    c2.515,3.986,7.785,5.178,11.771,2.663c0.429-0.275,43.371-26.775,79.1,2.325c1.519,1.242,3.421,1.92,5.383,1.917    c4.712,0.004,8.535-3.812,8.539-8.524C238.943,294.653,237.787,292.219,235.793,290.598z" fill="#705d78"/>
	</g>
</g>
<g>
	<g>
		<path d="M145.072,358.414c-4.713,0-8.533,3.82-8.533,8.533c-0.045,4.667,3.702,8.488,8.369,8.533c0.055,0.001,0.109,0.001,0.164,0    c2.27,0.021,4.453-0.871,6.059-2.475c1.57-1.628,2.455-3.797,2.475-6.059C153.606,362.235,149.785,358.414,145.072,358.414z" fill="#705d78"/>
	</g>
</g>
<g>
	<g>
		<path d="M152.922,397.84c-0.433-1.034-1.039-1.987-1.791-2.817c-0.83-0.753-1.783-1.359-2.817-1.792    c-4.173-1.86-9.063,0.015-10.922,4.188c-0.062,0.138-0.12,0.278-0.174,0.42c-0.475,1.013-0.708,2.124-0.68,3.243    c-0.016,1.109,0.186,2.211,0.596,3.242c0.464,1.038,1.099,1.99,1.879,2.817c3.365,3.3,8.752,3.3,12.117,0    c0.751-0.832,1.357-1.784,1.792-2.817C153.833,402.258,153.833,399.905,152.922,397.84z" fill="#705d78"/>
	</g>
</g>
<g>
	<g>
		<path d="M135.856,380.773L135.856,380.773c-0.413-1.044-1.021-2-1.792-2.817c-2.05-2.002-4.956-2.866-7.767-2.308    c-0.535,0.096-1.053,0.27-1.538,0.517c-0.543,0.185-1.059,0.443-1.533,0.767c-0.447,0.315-0.874,0.657-1.279,1.025    c-0.773,0.815-1.383,1.772-1.796,2.817c-0.475,1.013-0.708,2.123-0.679,3.242c-0.016,1.109,0.186,2.211,0.596,3.242    c0.464,1.038,1.099,1.99,1.879,2.817c2.441,2.444,6.125,3.154,9.3,1.792c1.034-0.433,1.987-1.039,2.817-1.792    c0.751-0.832,1.357-1.784,1.792-2.817C136.767,385.191,136.767,382.838,135.856,380.773z" fill="#705d78"/>
	</g>
</g>
<g>
	<g>
		<path d="M169.99,380.773c-0.413-1.044-1.021-2-1.792-2.817c-0.419-0.387-0.877-0.731-1.367-1.025    c-0.434-0.34-0.925-0.6-1.45-0.767c-0.509-0.259-1.056-0.433-1.621-0.517c-2.785-0.558-5.664,0.307-7.68,2.308    c-0.773,0.815-1.383,1.772-1.796,2.817c-0.475,1.013-0.708,2.123-0.679,3.242c-0.016,1.109,0.186,2.211,0.596,3.242    c0.464,1.038,1.099,1.99,1.879,2.817c0.829,0.753,1.78,1.359,2.813,1.792c3.176,1.362,6.862,0.652,9.305-1.792    c0.751-0.832,1.357-1.784,1.792-2.817C170.901,385.191,170.901,382.838,169.99,380.773z" fill="#705d78"/>
	</g>
</g>
<g>
	<g>
		<path d="M366.989,358.365c-2.293-0.013-4.494,0.896-6.108,2.524c-1.594,1.613-2.484,3.791-2.475,6.059    c-0.016,1.109,0.186,2.211,0.596,3.242c0.464,1.038,1.099,1.99,1.879,2.817c3.365,3.3,8.752,3.3,12.117,0    c0.751-0.832,1.357-1.784,1.792-2.817c0.438-1.026,0.67-2.127,0.683-3.242C375.5,362.235,371.702,358.392,366.989,358.365z" fill="#705d78"/>
	</g>
</g>
<g>
	<g>
		<path d="M374.789,397.84c-0.433-1.034-1.039-1.987-1.791-2.817c-3.421-3.158-8.695-3.158-12.117,0    c-0.773,0.815-1.383,1.772-1.796,2.817c-0.475,1.013-0.708,2.123-0.68,3.242c-0.016,1.109,0.186,2.211,0.596,3.242    c0.464,1.038,1.099,1.99,1.879,2.817c3.365,3.3,8.752,3.3,12.117,0c0.751-0.832,1.357-1.784,1.792-2.817    C375.7,402.258,375.7,399.905,374.789,397.84z" fill="#705d78"/>
	</g>
</g>
<g>
	<g>
		<path d="M357.722,380.773L357.722,380.773c-0.413-1.044-1.021-2-1.792-2.817c-2.05-2.002-4.956-2.866-7.767-2.308    c-0.535,0.096-1.053,0.27-1.538,0.517c-0.543,0.185-1.059,0.443-1.533,0.767c-0.447,0.315-0.874,0.657-1.279,1.025    c-0.773,0.815-1.383,1.772-1.796,2.817c-0.475,1.013-0.708,2.123-0.679,3.242c-0.016,1.109,0.186,2.211,0.596,3.242    c0.464,1.038,1.099,1.99,1.879,2.817c2.441,2.444,6.125,3.154,9.3,1.792c1.034-0.433,1.987-1.039,2.817-1.792    c0.751-0.832,1.357-1.784,1.792-2.817C358.633,385.191,358.633,382.838,357.722,380.773z" fill="#705d78"/>
	</g>
</g>
<g>
	<g>
		<path d="M391.856,380.773c-0.413-1.044-1.021-2-1.792-2.817c-0.419-0.387-0.877-0.731-1.367-1.025    c-0.434-0.34-0.925-0.6-1.45-0.767c-0.509-0.259-1.056-0.433-1.621-0.517c-2.785-0.558-5.664,0.307-7.68,2.308    c-0.773,0.815-1.383,1.772-1.796,2.817c-0.877,2.067-0.906,4.395-0.083,6.483c0.464,1.038,1.099,1.99,1.879,2.817    c3.365,3.3,8.752,3.3,12.117,0h0.001c0.751-0.832,1.357-1.784,1.792-2.817C392.767,385.191,392.767,382.838,391.856,380.773z" fill="#705d78"/>
	</g>
</g>
<g>
	<g>
		<path d="M319.147,388.673c-4.809-4.712-12.027-5.968-18.146-3.158c-28.802,12.072-61.246,12.069-90.046-0.008    c-6.095-2.783-13.272-1.543-18.079,3.125c-4.983,4.771-6.515,12.118-3.854,18.483c0.755,1.831,1.609,3.62,2.558,5.358    c3.347,6.547,7.686,12.537,12.863,17.759c4.358,4.397,9.261,8.22,14.588,11.375c0.146,0.1,0.279,0.183,0.375,0.242    c11.009,6.776,23.673,10.386,36.6,10.433c11.928,0.02,23.656-3.071,34.025-8.967c0.842-0.433,1.683-0.933,2.396-1.358    c5.564-3.216,10.66-7.181,15.146-11.783c4.614-4.609,8.546-9.853,11.675-15.575c0.112-0.175,0.642-1.067,0.738-1.25    c1.084-2,2.037-4.058,2.942-6.175l0.025-0.058C325.628,400.773,324.115,393.437,319.147,388.673z M304.968,405.248    c-0.067,0.108-0.458,0.742-0.517,0.858c-4.863,8.784-12.011,16.089-20.688,21.142c-0.517,0.317-1.033,0.633-1.837,1.05    c-16.661,9.531-37.203,9.177-53.525-0.925c-0.219-0.165-0.448-0.316-0.688-0.45c-4.07-2.422-7.819-5.348-11.158-8.708    c-3.997-4.049-7.342-8.693-9.917-13.767c-0.542-0.975-1.037-2-1.521-2.85c32.548,13.33,69.027,13.354,101.592,0.067    C306.168,402.881,305.597,404.073,304.968,405.248z" fill="#705d78"/>
	</g>
</g>
<g>
</g>
<g>
</g>
<g>
</g>
<g>
</g>
<g>
</g>
<g>
</g>
<g>
</g>
<g>
</g>
<g>
</g>
<g>
</g>
<g>
</g>
<g>
</g>
<g>
</g>
<g>
</g>
<g>
</g>
</svg>
